<?xml version="1.0" encoding="UTF-8" standalone="no" ?>
<!DOCTYPE svg PUBLIC "-//W3C//DTD SVG 1.1//EN" "http://www.w3.org/Graphics/SVG/1.1/DTD/svg11.dtd">
<svg xmlns="http://www.w3.org/2000/svg" xmlns:xlink="http://www.w3.org/1999/xlink" version="1.1" width="1080" height="1080" viewBox="0 0 1080 1080" xml:space="preserve">
<desc>Created with Fabric.js 5.2.4</desc>
<defs>
</defs>
<rect x="0" y="0" width="100%" height="100%" fill="transparent"></rect>
<g transform="matrix(1 0 0 1 540 540)" id="d24b4d81-2650-4d10-9cd1-99d88c394aa4"  >
<rect style="stroke: none; stroke-width: 1; stroke-dasharray: none; stroke-linecap: butt; stroke-dashoffset: 0; stroke-linejoin: miter; stroke-miterlimit: 4; fill: rgb(255,255,255); fill-rule: nonzero; opacity: 1; visibility: hidden;" vector-effect="non-scaling-stroke"  x="-540" y="-540" rx="0" ry="0" width="1080" height="1080" />
</g>
<g transform="matrix(1 0 0 1 540 540)" id="1d09e50d-1c15-448a-9256-b171f711b58e"  >
</g>
<g transform="matrix(1 0 0 1 544 544)" id="92462611-21de-47fc-b2e7-cc9abf1e9eaf"  >
<path style="stroke: rgb(0,0,0); stroke-width: 8; stroke-dasharray: none; stroke-linecap: butt; stroke-dashoffset: 0; stroke-linejoin: miter; stroke-miterlimit: 4; fill: rgb(129,90,140); fill-rule: nonzero; opacity: 1;" vector-effect="non-scaling-stroke"  transform=" translate(-480, 480)" d="M 360.06 -486.67 Q 390.33 -486.67 411.83 -508.23 Q 433.33 -529.78 433.33 -560.0600000000001 Q 433.33 -590.33 411.77 -611.83 Q 390.21999999999997 -633.33 359.94 -633.33 Q 329.67 -633.33 308.17 -611.7700000000001 Q 286.67 -590.2200000000001 286.67 -559.94 Q 286.67 -529.6700000000001 308.23 -508.1700000000001 Q 329.78000000000003 -486.6700000000001 360.06 -486.6700000000001 Z M 600.06 -486.67 Q 630.3299999999999 -486.67 651.8299999999999 -508.23 Q 673.3299999999999 -529.78 673.3299999999999 -560.0600000000001 Q 673.3299999999999 -590.33 651.77 -611.83 Q 630.22 -633.33 599.9399999999999 -633.33 Q 569.67 -633.33 548.17 -611.7700000000001 Q 526.67 -590.2200000000001 526.67 -559.94 Q 526.67 -529.6700000000001 548.2299999999999 -508.1700000000001 Q 569.7799999999999 -486.6700000000001 600.06 -486.6700000000001 Z M 353.33 -120 L 353.33 -286.66999999999996 L 446.66999999999996 -286.66999999999996 L 446.66999999999996 -120 L 353.3299999999999 -120 Z M 513.3299999999999 -120 L 513.3299999999999 -286.66999999999996 L 606.67 -286.66999999999996 L 606.67 -120 L 513.3299999999999 -120 Z M 186.6699999999999 -120 Q 159.1699999999999 -120 139.5799999999999 -139.57999999999998 Q 120 -159.17 120 -186.67 L 120 -600 Q 120 -700 190 -770 Q 260 -840 360 -840 L 600 -840 Q 700 -840 770 -770 Q 840 -700 840 -600 L 840 -186.67000000000002 Q 840 -159.17000000000002 820.42 -139.58 Q 800.83 -120 773.33 -120 L 673.33 -120 L 673.33 -286.66999999999996 Q 673.33 -314.16999999999996 653.75 -333.74999999999994 Q 634.17 -353.3299999999999 606.67 -353.3299999999999 L 353.33 -353.3299999999999 Q 325.83 -353.3299999999999 306.25 -333.74999999999994 Q 286.67 -314.16999999999996 286.67 -286.66999999999996 L 286.67 -120 L 186.67000000000002 -120 Z" stroke-linecap="round" />
</g>
</svg>