<svg xml:space="preserve" viewBox="432 453.59999999999997 250.56 248.4" version="1.1" xmlns:xlink="http://www.w3.org/1999/xlink" xmlns="http://www.w3.org/2000/svg" style="max-height: 500px" width="250.56" height="248.4">
<desc>Created with Fabric.js 5.2.4</desc>
<defs>
</defs>
<g id="eb86ad80-e789-49c8-9e06-9ffb7475e4b5" transform="matrix(1 0 0 1 540 540)">
</g>
<g id="b630bcf4-e47c-4e63-97e1-aed63cf71782" transform="matrix(1 0 0 1 540 540)">
<rect height="1080" width="1080" ry="0" rx="0" y="-540" x="-540" style="stroke: none; stroke-width: 1; stroke-dasharray: none; stroke-linecap: butt; stroke-dashoffset: 0; stroke-linejoin: miter; stroke-miterlimit: 4; fill: rgb(255,255,255); fill-rule: nonzero; opacity: 1; visibility: hidden;"/>
</g>
<g transform="matrix(1 0 0 1 540 540)">
<rect height="1080" width="1080" ry="0" rx="0" y="-540" x="-540" style="stroke: none; stroke-width: 1; stroke-dasharray: none; stroke-linecap: butt; stroke-dashoffset: 0; stroke-linejoin: miter; stroke-miterlimit: 4; fill: rgb(255,255,255); fill-rule: nonzero; opacity: 1; visibility: hidden;"/>
</g>
<g transform="matrix(1 0 0 1 608.99 489.71)">
<path stroke-linecap="round" d="M 196.8 13.8 C 190.20000000000002 15.5 173.5 24 167.20000000000002 28.8 C 158.3 35.6 150.50000000000003 43.3 146.3 49.400000000000006 C 142.9 54.400000000000006 142.4 55.800000000000004 142.3 59.400000000000006 C 142.3 65.2 144.60000000000002 66.9 153.4 67.30000000000001 C 177.3 68.4 212.3 44.60000000000001 216.5 24.30000000000001 C 217.6 19.50000000000001 216.3 15.00000000000001 213.4 13.50000000000001 C 211.1 12.1 202.3 12.4 196.8 13.8 z" transform="translate(-179.59, -39.96)" style="stroke: rgb(0,0,0); stroke-width: 5; stroke-dasharray: none; stroke-linecap: butt; stroke-dashoffset: 0; stroke-linejoin: miter; stroke-miterlimit: 4; fill: rgb(161,200,183); fill-rule: nonzero; opacity: 1;"/>
</g>
<g transform="matrix(1 0 0 1 558.93 584.84)">
<path stroke-linecap="round" d="M 222.1 28 C 218.2 40.9 202.7 56.7 185 65.5 C 173.7 71.2 160.2 74.6 151.9 73.8 L 147.8 73.39999999999999 L 150.3 76.99999999999999 C 154.20000000000002 82.69999999999999 158 91.79999999999998 159.60000000000002 98.89999999999998 C 161.60000000000002 108.19999999999997 161.00000000000003 122.89999999999998 158.10000000000002 131.09999999999997 C 155.3 139.19999999999996 152.40000000000003 144.09999999999997 147.00000000000003 149.39999999999998 C 138.60000000000002 157.7 127.70000000000003 161.89999999999998 114.50000000000003 161.99999999999997 C 108.80000000000003 161.99999999999997 105.90000000000003 161.59999999999997 101.60000000000002 160.19999999999996 C 90.70000000000002 156.39999999999995 80.50000000000003 147.69999999999996 75.90000000000002 138.29999999999995 C 73.70000000000002 133.59999999999997 73.50000000000001 132.79999999999995 73.50000000000001 123.09999999999995 C 73.50000000000001 113.69999999999995 73.70000000000002 112.39999999999995 75.70000000000002 108.09999999999995 C 78.70000000000002 101.69999999999995 82.10000000000002 97.49999999999996 86.80000000000001 94.59999999999995 C 101.10000000000001 85.39999999999995 120.50000000000001 89.39999999999995 128.5 103.29999999999995 C 130.2 106.29999999999995 130.8 108.29999999999995 131 113.59999999999995 C 131.3 119.69999999999995 131.1 120.59999999999995 129 124.69999999999995 C 125.8 130.79999999999995 120.7 133.99999999999994 113.7 134.39999999999995 C 107.8 134.69999999999996 104 132.99999999999994 101.2 128.79999999999995 C 98.7 125.29999999999995 98.8 124.89999999999995 102.2 124.19999999999996 C 104.60000000000001 123.79999999999995 105.3 123.99999999999996 107 125.99999999999996 C 108.6 127.79999999999995 109.5 128.19999999999996 112.7 128.19999999999996 C 119.5 127.99999999999996 123.4 124.79999999999995 125 117.99999999999996 C 127.5 106.59999999999995 117.4 95.99999999999996 103.9 95.99999999999996 C 91.10000000000001 96.09999999999995 82 103.99999999999996 79.60000000000001 117.49999999999996 C 77.30000000000001 130.29999999999995 82.60000000000001 142.09999999999997 93.9 149.49999999999994 C 102.60000000000001 155.09999999999994 112.10000000000001 156.99999999999994 121.9 155.19999999999993 C 137.20000000000002 152.29999999999993 147.6 143.19999999999993 152.20000000000002 128.59999999999994 C 154.9 120.19999999999993 155.3 106.99999999999994 153.10000000000002 98.59999999999994 C 148 79 133.7 64.9 113.5 59 C 108.2 57.4 105.1 57.2 95.2 57.2 C 85 57.2 82.2 57.5 75.2 59.400000000000006 C 65.5 62.00000000000001 50.900000000000006 68.9 43.6 74.30000000000001 L 38.300000000000004 78.20000000000002 L 43.50000000000001 79.30000000000001 C 49.60000000000001 80.60000000000001 54.30000000000001 82.70000000000002 58.60000000000001 86.30000000000001 L 61.70000000000001 88.9 L 59.50000000000001 91.2 L 57.20000000000001 93.60000000000001 L 55.20000000000001 91.60000000000001 C 51.60000000000001 88.2 44.500000000000014 85.50000000000001 37.80000000000001 84.9 L 31.70000000000001 84.4 L 27.5 90 C 19.6 100.5 15.3 110.1 12.3 123.1 C 10.5 131.2 9.4 147.7 10.200000000000001 154.5 L 10.8 159.2 L 14.8 155.1 C 21.8 148 31.400000000000002 142.79999999999998 41.7 140.79999999999998 C 43.900000000000006 140.29999999999998 44.300000000000004 140.49999999999997 44.300000000000004 141.79999999999998 C 44.300000000000004 142.6 44.50000000000001 143.99999999999997 44.800000000000004 144.89999999999998 C 45.2 146.39999999999998 44.6 146.7 40.300000000000004 147.59999999999997 C 31.200000000000003 149.49999999999997 21.900000000000006 155.59999999999997 15.600000000000005 163.69999999999996 L 12.200000000000005 167.99999999999997 L 13.500000000000005 173.19999999999996 C 15.100000000000005 179.59999999999997 21.900000000000006 193.89999999999995 26.000000000000007 199.59999999999997 C 33.20000000000001 209.69999999999996 41.60000000000001 217.79999999999995 52.50000000000001 225.09999999999997 L 56.900000000000006 228.09999999999997 L 58.00000000000001 221.09999999999997 C 59.800000000000004 208.29999999999995 64.60000000000001 197.69999999999996 72.5 188.99999999999997 L 76.1 184.89999999999998 L 78.39999999999999 187.09999999999997 L 80.6 189.19999999999996 L 76.8 193.49999999999997 C 69.2 202.19999999999996 63.9 215.79999999999998 63.9 226.7 L 63.9 231.79999999999998 L 69.9 234.29999999999998 C 78.4 237.79999999999998 89.2 240.89999999999998 98.80000000000001 242.29999999999998 C 109.20000000000002 243.89999999999998 130.70000000000002 243.39999999999998 141.3 241.2 L 148.4 239.7 L 145.4 235.6 C 137.9 225.1 134.20000000000002 213.6 134.1 200.8 C 134 190.10000000000002 134.79999999999998 186 136.9 186 C 140.8 186 141 186.4 140.5 195.7 C 140.2 202.1 140.3 206.1 141.3 210.6 C 142.8 217.7 148.60000000000002 229.9 152.70000000000002 234.7 L 155.50000000000003 238 L 163.20000000000002 235.3 C 183.4 228.20000000000002 205 214.20000000000002 216.40000000000003 200.70000000000002 C 221.20000000000005 195.10000000000002 226.20000000000005 188.3 226.20000000000005 187.70000000000002 C 226.20000000000005 187.4 223.60000000000005 186.9 220.30000000000004 186.60000000000002 C 213.00000000000003 185.90000000000003 201.90000000000003 182.3 195.10000000000005 178.20000000000002 C 190.00000000000006 175.20000000000002 179.80000000000004 165.9 178.00000000000006 162.50000000000003 C 177.30000000000007 161.20000000000002 177.60000000000005 160.60000000000002 179.60000000000005 159.10000000000002 L 182.10000000000005 157.20000000000002 L 183.30000000000004 159.20000000000002 C 184.00000000000003 160.20000000000002 187.00000000000003 163.4 189.90000000000003 166.20000000000002 C 198.30000000000004 174.50000000000003 209.90000000000003 179.3 224.70000000000005 180.8 L 230.20000000000005 181.4 L 231.80000000000004 178.8 C 237.30000000000004 169.70000000000002 243.30000000000004 149.3 244.90000000000003 133.60000000000002 C 245.90000000000003 125.00000000000003 246.00000000000003 108.30000000000003 245.30000000000004 105.30000000000003 C 244.80000000000004 103.40000000000002 244.70000000000005 103.40000000000002 241.00000000000003 106.20000000000003 C 229.90000000000003 114.30000000000003 219.10000000000002 117.50000000000003 202.60000000000002 117.70000000000003 C 196.20000000000002 117.70000000000003 190.8 117.50000000000003 190.50000000000003 117.20000000000003 C 190.20000000000002 116.90000000000003 190.10000000000002 115.40000000000003 190.40000000000003 113.90000000000003 L 190.90000000000003 111.20000000000003 L 202.50000000000003 111.20000000000003 C 212.50000000000003 111.20000000000003 215.10000000000002 111.00000000000003 220.40000000000003 109.30000000000003 C 228.50000000000003 106.80000000000003 234.90000000000003 103.30000000000003 240.20000000000005 98.60000000000002 L 244.50000000000006 94.70000000000002 L 243.50000000000006 87.00000000000001 C 241.20000000000005 69.60000000000002 235.40000000000006 49.20000000000002 228.20000000000005 32.80000000000001 C 226.10000000000005 28.100000000000012 224.20000000000005 24.100000000000012 223.90000000000003 23.80000000000001 C 223.7 23.5 222.8 25.3 222.1 28 z" transform="translate(-127.84, -133.5)" style="stroke: rgb(0,0,0); stroke-width: 5; stroke-dasharray: none; stroke-linecap: butt; stroke-dashoffset: 0; stroke-linejoin: miter; stroke-miterlimit: 4; fill: rgb(60,170,123); fill-rule: nonzero; opacity: 1;"/>
</g>
</svg>