<svg xml:space="preserve" viewBox="215.055 279.85392 669.6 542.16" version="1.1" xmlns:xlink="http://www.w3.org/1999/xlink" xmlns="http://www.w3.org/2000/svg" style="max-height: 500px" width="669.6" height="542.16">
<desc>Created with Fabric.js 5.2.4</desc>
<defs>
</defs>
<g id="1c7f2784-bbd9-4522-9d68-fd41406b9e02" transform="matrix(1 0 0 1 540 540)">
</g>
<g id="8d21bc4c-c453-45b2-856e-32c9d7cef90c" transform="matrix(1 0 0 1 540 540)">
<rect height="1080" width="1080" ry="0" rx="0" y="-540" x="-540" style="stroke: none; stroke-width: 1; stroke-dasharray: none; stroke-linecap: butt; stroke-dashoffset: 0; stroke-linejoin: miter; stroke-miterlimit: 4; fill: rgb(255,255,255); fill-rule: nonzero; opacity: 1; visibility: hidden;"/>
</g>
<g transform="matrix(1 0 0 1 540 540)">
<rect height="1080" width="1080" ry="0" rx="0" y="-540" x="-540" style="stroke: none; stroke-width: 1; stroke-dasharray: none; stroke-linecap: butt; stroke-dashoffset: 0; stroke-linejoin: miter; stroke-miterlimit: 4; fill: rgb(255,255,255); fill-rule: nonzero; opacity: 1; visibility: hidden;"/>
</g>
<g transform="matrix(1 0 0 1 540 540)">
<rect height="1080" width="1080" ry="0" rx="0" y="-540" x="-540" style="stroke: none; stroke-width: 1; stroke-dasharray: none; stroke-linecap: butt; stroke-dashoffset: 0; stroke-linejoin: miter; stroke-miterlimit: 4; fill: rgb(255,255,255); fill-rule: nonzero; opacity: 1; visibility: hidden;"/>
</g>
<g transform="matrix(1 0 0 1 549 549)">
<path stroke-linecap="round" d="M 320 0 C 337.7 0 352 14.3 352 32 L 352 164.1 C 352 180.5 360.4 195.79999999999998 374.2 204.6 L 384 210.79999999999998 L 384 165.3 C 384 127 415 96 453.3 96 C 475 96 496.1 106.2 509.1 124.8 C 524.5 146.9 553.4 190.2 580.1 241.7 C 606.6 292.59999999999997 632.5 354.2 639.7 412 C 639.9000000000001 413.3 639.9000000000001 414.6 639.9000000000001 416 L 639.9000000000001 423 C 639.9000000000001 472.1 600.1000000000001 512 550.9000000000001 512 C 543.6000000000001 512 536.4000000000001 511.1 529.3000000000001 509.3 L 456.6000000000001 491.1 C 414 480.5 384 442.1 384 398 L 384 325 L 474.5 382.6 C 482 387.3 491.8 385.1 496.6 377.70000000000005 C 501.40000000000003 370.30000000000007 499.1 360.40000000000003 491.70000000000005 355.6 L 384 287.1 L 384 286.70000000000005 L 339.9 258.6 C 332.59999999999997 254.00000000000003 326 248.50000000000003 320 242.50000000000003 C 314.1 248.50000000000003 307.4 254.00000000000003 300.1 258.6 L 256 286.7 L 161.2 347 L 147.7 355.6 C 147.7 355.6 147.7 355.6 147.6 355.6 C 140.2 360.40000000000003 138 370.20000000000005 142.79999999999998 377.70000000000005 C 147.49999999999997 385.20000000000005 157.39999999999998 387.40000000000003 164.89999999999998 382.6 L 255.99999999999997 324.6 L 255.99999999999997 398 C 255.99999999999997 442.1 225.99999999999997 480.5 183.29999999999995 491.1 L 110.59999999999995 509.3 C 103.49999999999996 511.1 96.29999999999995 512 88.99999999999994 512 C 39.89999999999994 512 -5.684341886080802e-14 472.2 -5.684341886080802e-14 423 L -5.684341886080802e-14 416 C -5.684341886080802e-14 414.7 0.09999999999994316 413.3 0.19999999999994317 412 C 7.3999999999999435 354.1 33.29999999999995 292.6 59.79999999999995 241.7 C 86.59999999999995 190.2 115.39999999999995 146.89999999999998 130.79999999999995 124.79999999999998 C 143.79999999999995 106.19999999999999 164.79999999999995 95.99999999999999 186.59999999999997 95.99999999999999 C 225 96 256 127 256 165.3 L 256 210.8 L 265.8 204.60000000000002 C 279.6 195.8 288 180.50000000000003 288 164.10000000000002 L 288 32 C 288 14.3 302.3 0 320 0 z" transform="translate(-319.95, -256)" style="stroke: rgb(0,0,0); stroke-width: 18; stroke-dasharray: none; stroke-linecap: butt; stroke-dashoffset: 0; stroke-linejoin: miter; stroke-miterlimit: 4; fill: rgb(183,183,183); fill-rule: nonzero; opacity: 1;"/>
</g>
</svg>