<?xml version="1.0" encoding="UTF-8" standalone="no" ?>
<!DOCTYPE svg PUBLIC "-//W3C//DTD SVG 1.1//EN" "http://www.w3.org/Graphics/SVG/1.1/DTD/svg11.dtd">
<svg xmlns="http://www.w3.org/2000/svg" xmlns:xlink="http://www.w3.org/1999/xlink" version="1.1" width="1080" height="1080" viewBox="0 0 1080 1080" xml:space="preserve">
<desc>Created with Fabric.js 5.2.4</desc>
<defs>
</defs>
<rect x="0" y="0" width="100%" height="100%" fill="transparent"></rect>
<g transform="matrix(1 0 0 1 540 540)" id="d24b4d81-2650-4d10-9cd1-99d88c394aa4"  >
<rect style="stroke: none; stroke-width: 1; stroke-dasharray: none; stroke-linecap: butt; stroke-dashoffset: 0; stroke-linejoin: miter; stroke-miterlimit: 4; fill: rgb(255,255,255); fill-rule: nonzero; opacity: 1; visibility: hidden;" vector-effect="scaling-stroke"  x="-540" y="-540" rx="0" ry="0" width="1080" height="1080" />
</g>
<g transform="matrix(1 0 0 1 540 540)" id="1d09e50d-1c15-448a-9256-b171f711b58e"  >
</g>
<g transform="matrix(4.46 0 0 4.53 544 560.38)" id="33a9a9d5-f9d9-4a3d-9674-7198fb0edc18"  >
<path style="stroke: rgb(0,0,0); stroke-width: 8; stroke-dasharray: none; stroke-linecap: butt; stroke-dashoffset: 0; stroke-linejoin: miter; stroke-miterlimit: 4; fill: rgb(108,6,6); fill-rule: nonzero; opacity: 1;" vector-effect="scaling-stroke"  transform=" translate(-128, -128.05)" d="M 135.2 229.1 L 123.69999999999999 229.1 C 122.99999999999999 229 122.19999999999999 228.7 121.49999999999999 228.7 C 114.19999999999999 227.89999999999998 106.79999999999998 227.5 99.6 226.29999999999998 C 90.69999999999999 224.89999999999998 82.1 225.89999999999998 73.8 229.1 L 69.8 229.1 C 69.6 228.9 69.5 228.6 69.3 228.5 C 50.4 217.1 36.199999999999996 201.3 28 180.8 C 18.1 155.70000000000002 12.8 129.60000000000002 11.2 102.70000000000002 C 11 98.70000000000002 10.5 94.70000000000002 10.1 90.80000000000001 L 10.1 74 C 10.299999999999999 72.9 10.6 71.8 10.7 70.7 C 12 59.5 16.2 49.800000000000004 24.5 41.900000000000006 C 31.2 35.50000000000001 38.3 29.600000000000005 47.5 27.000000000000007 L 54.4 27.000000000000007 C 56.6 27.900000000000006 59 28.500000000000007 60.9 29.800000000000008 C 66.4 33.80000000000001 71.9 37.80000000000001 76.9 42.30000000000001 C 79.2 44.30000000000001 80.60000000000001 47.60000000000001 81.60000000000001 50.60000000000001 C 82.4 53.00000000000001 82.50000000000001 55.80000000000001 79.60000000000001 57.400000000000006 C 79.2 57.60000000000001 79.00000000000001 58.300000000000004 79.00000000000001 58.800000000000004 C 78.40000000000002 62.7 76.50000000000001 65.30000000000001 73.00000000000001 65.60000000000001 C 71.90000000000002 67.50000000000001 71.30000000000001 69.30000000000001 70.10000000000001 70.2 C 67.80000000000001 72 65.2 73.2 62.80000000000001 75.3 C 59.10000000000001 78.6 50.90000000000001 76.7 47.90000000000001 72.7 C 47 73 46.2 73.6 45.4 74 C 44.5 74.5 43.5 74.8 42.5 75.2 C 40.3 76 39.6 77.5 40.4 79.8 C 45.5 94.7 52.2 108.6 64 119.6 C 73.6 128.6 80.8 139.4 85.9 151.5 C 86.7 153.4 87.5 155.2 88.5 157.5 C 95.2 122.9 115.7 108.2 150.1 112.9 C 143.2 91.9 153.29999999999998 74.30000000000001 167 65.9 C 180.8 57.50000000000001 195.9 55.2 211.5 58.2 C 228.3 61.400000000000006 238 72.8 243 88.6 C 244.4 92.89999999999999 245 97.5 245.9 102 L 245.9 114.1 C 245.20000000000002 117.1 244.8 120.1 243.9 123 C 238.70000000000002 140.6 226.6 152.1 210.60000000000002 160 C 208.8 160.9 207.90000000000003 162 207.3 163.8 C 203.10000000000002 175.9 197.3 187.20000000000002 189.60000000000002 197.4 C 178.60000000000002 211.9 165.00000000000003 222.70000000000002 146.90000000000003 227 C 143.2 228 139.2 228.4 135.2 229.1 L 135.2 229.1 z" stroke-linecap="round" />
</g>
<g transform="matrix(4.31 0 0 4.31 900.99 855.97)" id="693b31b0-0305-497f-9480-fa70b73da58b"  >
<path style="stroke: rgb(0,0,0); stroke-width: 10; stroke-dasharray: none; stroke-linecap: butt; stroke-dashoffset: 0; stroke-linejoin: miter; stroke-miterlimit: 4; fill: rgb(254,254,254); fill-rule: nonzero; opacity: 1;" vector-effect="scaling-stroke"  transform=" translate(-50, -50)" d="M 40.747 13.955 L 59.254000000000005 13.955 C 60.353 13.955 61.242000000000004 14.845 61.242000000000004 15.941 L 61.242000000000004 38.787 L 84.08600000000001 38.787 C 85.18400000000001 38.787 86.07000000000001 39.675 86.07000000000001 40.772999999999996 L 86.07000000000001 59.226 C 86.07000000000001 60.324999999999996 85.183 61.211999999999996 84.08600000000001 61.211999999999996 L 61.242 61.211999999999996 L 61.242 84.05799999999999 C 61.242 85.157 60.352 86.044 59.254 86.044 L 40.747 86.044 C 39.652 86.044 38.762 85.15599999999999 38.762 84.05799999999999 L 38.762 61.213 L 15.915 61.213 C 14.819999999999999 61.213 13.93 60.325 13.93 59.227000000000004 L 13.93 40.773 C 13.93 39.67400000000001 14.82 38.787000000000006 15.915 38.787000000000006 L 38.762 38.787000000000006 L 38.762 15.941 C 38.762 14.845 39.651 13.955 40.747 13.955 z" stroke-linecap="round" />
</g>
</svg>