<svg xmlns="http://www.w3.org/2000/svg" xmlns:xlink="http://www.w3.org/1999/xlink" version="1.1" x="0px" y="0px" viewBox="0 0 256 256" enable-background="new 0 0 256 256" xml:space="preserve">
<metadata fill="#e84d4d"> Svg Vector Icons : http://www.onlinewebfonts.com/icon </metadata>
<g><g><path fill="#e84d4d" d="M135.2,229.1h-11.5c-0.7-0.1-1.5-0.4-2.2-0.4c-7.3-0.8-14.7-1.2-21.9-2.4c-8.9-1.4-17.5-0.4-25.8,2.8h-4c-0.2-0.2-0.3-0.5-0.5-0.6c-18.9-11.4-33.1-27.2-41.3-47.7c-9.9-25.1-15.2-51.2-16.8-78.1c-0.2-4-0.7-8-1.1-11.9V74c0.2-1.1,0.5-2.2,0.6-3.3c1.3-11.2,5.5-20.9,13.8-28.8c6.7-6.4,13.8-12.3,23-14.9h6.9c2.2,0.9,4.6,1.5,6.5,2.8c5.5,4,11,8,16,12.5c2.3,2,3.7,5.3,4.7,8.3c0.8,2.4,0.9,5.2-2,6.8c-0.4,0.2-0.6,0.9-0.6,1.4c-0.6,3.9-2.5,6.5-6,6.8c-1.1,1.9-1.7,3.7-2.9,4.6c-2.3,1.8-4.9,3-7.3,5.1c-3.7,3.3-11.9,1.4-14.9-2.6C47,73,46.2,73.6,45.4,74c-0.9,0.5-1.9,0.8-2.9,1.2c-2.2,0.8-2.9,2.3-2.1,4.6c5.1,14.9,11.8,28.8,23.6,39.8c9.6,9,16.8,19.8,21.9,31.9c0.8,1.9,1.6,3.7,2.6,6c6.7-34.6,27.2-49.3,61.6-44.6c-6.9-21,3.2-38.6,16.9-47c13.8-8.4,28.9-10.7,44.5-7.7c16.8,3.2,26.5,14.6,31.5,30.4c1.4,4.3,2,8.9,2.9,13.4v12.1c-0.7,3-1.1,6-2,8.9c-5.2,17.6-17.3,29.1-33.3,37c-1.8,0.9-2.7,2-3.3,3.8c-4.2,12.1-10,23.4-17.7,33.6c-11,14.5-24.6,25.3-42.7,29.6C143.2,228,139.2,228.4,135.2,229.1L135.2,229.1z"/></g></g>
</svg>