<svg width="445.175px" height="156.79999999999998px" xmlns="http://www.w3.org/2000/svg" viewBox="27.412499999999994 -3.3999999999999915 445.175 156.79999999999998" style="background: rgba(0, 0, 0, 0);" preserveAspectRatio="xMidYMid"><defs><linearGradient id="editing-sticker-gradient" x1="0.5" y1="0.2" x2="0.5" y2="0.8"><stop offset="0" stop-color="#fd9"></stop><stop offset="1" stop-color="#9df"></stop></linearGradient><filter id="editing-sticker" x="-100%" y="-100%" width="300%" height="300%"><feMorphology operator="erode" radius="1" in="SourceAlpha" result="alpha-erode"></feMorphology><feConvolveMatrix order="3,3" divisor="1" kernelMatrix="0 1 0 1 1 1 0 1 0" in="alpha-erode" result="alpha-round"></feConvolveMatrix><feMorphology operator="dilate" radius="3.5" in="alpha-round" result="dilate-shadow"></feMorphology><feGaussianBlur in="dilate-shadow" stdDeviation="1.5" result="shadow"></feGaussianBlur><feFlood flood-color="#fff" result="flood-sticker"></feFlood><feComposite operator="in" in="flood-sticker" in2="alpha-round" result="comp-sticker"></feComposite><feMorphology operator="dilate" radius="3" in="comp-sticker" result="morph-sticker"></feMorphology><feConvolveMatrix order="3,3" divisor="1" kernelMatrix="0 1 0 1 1 1 0 1 0" in="morph-sticker" result="sticker"></feConvolveMatrix><feMerge><feMergeNode in="shadow"></feMergeNode><feMergeNode in="sticker"></feMergeNode><feMergeNode in="SourceGraphic"></feMergeNode></feMerge></filter></defs><g filter="url(#editing-sticker)"><g transform="translate(91.5999870300293, 100.7249984741211)"><path d="M18.69-12.54L15.30-12.54L15.30-0.26L15.30-0.26Q14.59-0.06 13.09 0.13L13.09 0.13L13.09 0.13Q11.58 0.32 10.11 0.32L10.11 0.32L10.11 0.32Q8.64 0.32 7.52 0.10L7.52 0.10L7.52 0.10Q6.40-0.13 5.66-0.70L5.66-0.70L5.66-0.70Q4.93-1.28 4.54-2.30L4.54-2.30L4.54-2.30Q4.16-3.33 4.16-4.99L4.16-4.99L4.16-35.14L4.16-35.14Q4.16-36.48 4.90-37.22L4.90-37.22L4.90-37.22Q5.63-37.95 6.91-38.40L6.91-38.40L6.91-38.40Q9.09-39.17 11.97-39.52L11.97-39.52L11.97-39.52Q14.85-39.87 18.11-39.87L18.11-39.87L18.11-39.87Q26.94-39.87 31.42-36.16L31.42-36.16L31.42-36.16Q35.90-32.45 35.90-26.11L35.90-26.11L35.90-26.11Q35.90-22.14 33.86-19.33L33.86-19.33L33.86-19.33Q31.81-16.51 28.99-14.98L28.99-14.98L28.99-14.98Q31.30-11.84 33.54-9.09L33.54-9.09L33.54-9.09Q35.78-6.34 37.06-4.10L37.06-4.10L37.06-4.10Q36.42-1.86 34.72-0.67L34.72-0.67L34.72-0.67Q33.02 0.51 30.91 0.51L30.91 0.51L30.91 0.51Q29.50 0.51 28.48 0.19L28.48 0.19L28.48 0.19Q27.46-0.13 26.69-0.70L26.69-0.70L26.69-0.70Q25.92-1.28 25.28-2.11L25.28-2.11L25.28-2.11Q24.64-2.94 24.06-3.90L24.06-3.90L18.69-12.54ZM15.23-21.06L19.33-21.06L19.33-21.06Q21.76-21.06 23.17-22.30L23.17-22.30L23.17-22.30Q24.58-23.55 24.58-25.98L24.58-25.98L24.58-25.98Q24.58-28.42 23.01-29.66L23.01-29.66L23.01-29.66Q21.44-30.91 18.05-30.91L18.05-30.91L18.05-30.91Q17.09-30.91 16.51-30.85L16.51-30.85L16.51-30.85Q15.94-30.78 15.23-30.66L15.23-30.66L15.23-21.06ZM74.50-15.55L74.50-15.55L74.50-15.55Q74.50-11.58 73.28-8.48L73.28-8.48L73.28-8.48Q72.06-5.38 69.86-3.26L69.86-3.26L69.86-3.26Q67.65-1.15 64.58-0.06L64.58-0.06L64.58-0.06Q61.50 1.02 57.73 1.02L57.73 1.02L57.73 1.02Q53.95 1.02 50.88-0.13L50.88-0.13L50.88-0.13Q47.81-1.28 45.60-3.42L45.60-3.42L45.60-3.42Q43.39-5.57 42.18-8.64L42.18-8.64L42.18-8.64Q40.96-11.71 40.96-15.55L40.96-15.55L40.96-15.55Q40.96-19.33 42.18-22.40L42.18-22.40L42.18-22.40Q43.39-25.47 45.60-27.62L45.60-27.62L45.60-27.62Q47.81-29.76 50.88-30.91L50.88-30.91L50.88-30.91Q53.95-32.06 57.73-32.06L57.73-32.06L57.73-32.06Q61.50-32.06 64.58-30.88L64.58-30.88L64.58-30.88Q67.65-29.70 69.86-27.55L69.86-27.55L69.86-27.55Q72.06-25.41 73.28-22.34L73.28-22.34L73.28-22.34Q74.50-19.26 74.50-15.55ZM52.10-15.55L52.10-15.55L52.10-15.55Q52.10-11.65 53.60-9.57L53.60-9.57L53.60-9.57Q55.10-7.49 57.79-7.49L57.79-7.49L57.79-7.49Q60.48-7.49 61.92-9.60L61.92-9.60L61.92-9.60Q63.36-11.71 63.36-15.55L63.36-15.55L63.36-15.55Q63.36-19.39 61.89-21.47L61.89-21.47L61.89-21.47Q60.42-23.55 57.73-23.55L57.73-23.55L57.73-23.55Q55.04-23.55 53.57-21.47L53.57-21.47L53.57-21.47Q52.10-19.39 52.10-15.55ZM94.98-32.06L94.98-32.06L94.98-32.06Q98.62-32.06 101.60-31.14L101.60-31.14L101.60-31.14Q104.58-30.21 106.62-28.74L106.62-28.74L106.62-28.74Q107.90-27.84 108.64-26.75L108.64-26.75L108.64-26.75Q109.38-25.66 109.38-23.94L109.38-23.94L109.38-1.54L109.38-1.54Q109.38 1.86 108.10 4.32L108.10 4.32L108.10 4.32Q106.82 6.78 104.61 8.42L104.61 8.42L104.61 8.42Q102.40 10.05 99.42 10.82L99.42 10.82L99.42 10.82Q96.45 11.58 93.06 11.58L93.06 11.58L93.06 11.58Q87.23 11.58 83.90 10.02L83.90 10.02L83.90 10.02Q80.58 8.45 80.58 4.93L80.58 4.93L80.58 4.93Q80.58 3.46 81.18 2.34L81.18 2.34L81.18 2.34Q81.79 1.22 82.56 0.64L82.56 0.64L82.56 0.64Q84.42 1.66 86.75 2.37L86.75 2.37L86.75 2.37Q89.09 3.07 91.58 3.07L91.58 3.07L91.58 3.07Q95.04 3.07 97.09 1.92L97.09 1.92L97.09 1.92Q99.14 0.77 99.14-1.79L99.14-1.79L99.14-2.82L99.14-2.82Q96.51-1.66 92.74-1.66L92.74-1.66L92.74-1.66Q89.86-1.66 87.26-2.53L87.26-2.53L87.26-2.53Q84.67-3.39 82.72-5.22L82.72-5.22L82.72-5.22Q80.77-7.04 79.58-9.92L79.58-9.92L79.58-9.92Q78.40-12.80 78.40-16.77L78.40-16.77L78.40-16.77Q78.40-20.67 79.65-23.55L79.65-23.55L79.65-23.55Q80.90-26.43 83.10-28.32L83.10-28.32L83.10-28.32Q85.31-30.21 88.35-31.14L88.35-31.14L88.35-31.14Q91.39-32.06 94.98-32.06ZM98.94-11.01L98.94-22.78L98.94-22.78Q98.50-23.04 97.63-23.30L97.63-23.30L97.63-23.30Q96.77-23.55 95.49-23.55L95.49-23.55L95.49-23.55Q92.35-23.55 90.78-21.79L90.78-21.79L90.78-21.79Q89.22-20.03 89.22-16.77L89.22-16.77L89.22-16.77Q89.22-13.06 90.78-11.42L90.78-11.42L90.78-11.42Q92.35-9.79 94.78-9.79L94.78-9.79L94.78-9.79Q97.41-9.79 98.94-11.01L98.94-11.01ZM116.10-12.35L116.10-30.66L116.10-30.66Q116.74-30.85 118.11-31.04L118.11-31.04L118.11-31.04Q119.49-31.23 120.96-31.23L120.96-31.23L120.96-31.23Q122.37-31.23 123.49-31.04L123.49-31.04L123.49-31.04Q124.61-30.85 125.38-30.27L125.38-30.27L125.38-30.27Q126.14-29.70 126.56-28.70L126.56-28.70L126.56-28.70Q126.98-27.71 126.98-26.11L126.98-26.11L126.98-12.35L126.98-12.35Q126.98-9.73 128.26-8.61L128.26-8.61L128.26-8.61Q129.54-7.49 131.97-7.49L131.97-7.49L131.97-7.49Q133.44-7.49 134.37-7.74L134.37-7.74L134.37-7.74Q135.30-8 135.81-8.26L135.81-8.26L135.81-30.66L135.81-30.66Q136.45-30.85 137.82-31.04L137.82-31.04L137.82-31.04Q139.20-31.23 140.67-31.23L140.67-31.23L140.67-31.23Q142.08-31.23 143.20-31.04L143.20-31.04L143.20-31.04Q144.32-30.85 145.09-30.27L145.09-30.27L145.09-30.27Q145.86-29.70 146.27-28.70L146.27-28.70L146.27-28.70Q146.69-27.71 146.69-26.11L146.69-26.11L146.69-6.66L146.69-6.66Q146.69-3.46 144-1.86L144-1.86L144-1.86Q141.76-0.45 138.66 0.29L138.66 0.29L138.66 0.29Q135.55 1.02 131.90 1.02L131.90 1.02L131.90 1.02Q128.45 1.02 125.54 0.26L125.54 0.26L125.54 0.26Q122.62-0.51 120.51-2.11L120.51-2.11L120.51-2.11Q118.40-3.71 117.25-6.24L117.25-6.24L117.25-6.24Q116.10-8.77 116.10-12.35L116.10-12.35ZM169.79 1.02L169.79 1.02L169.79 1.02Q166.02 1.02 162.78-0.03L162.78-0.03L162.78-0.03Q159.55-1.09 157.15-3.20L157.15-3.20L157.15-3.20Q154.75-5.31 153.38-8.51L153.38-8.51L153.38-8.51Q152-11.71 152-16L152-16L152-16Q152-20.22 153.38-23.26L153.38-23.26L153.38-23.26Q154.75-26.30 156.99-28.26L156.99-28.26L156.99-28.26Q159.23-30.21 162.11-31.14L162.11-31.14L162.11-31.14Q164.99-32.06 168-32.06L168-32.06L168-32.06Q171.39-32.06 174.18-31.04L174.18-31.04L174.18-31.04Q176.96-30.02 178.98-28.22L178.98-28.22L178.98-28.22Q180.99-26.43 182.11-23.94L182.11-23.94L182.11-23.94Q183.23-21.44 183.23-18.50L183.23-18.50L183.23-18.50Q183.23-16.32 182.02-15.17L182.02-15.17L182.02-15.17Q180.80-14.02 178.62-13.70L178.62-13.70L162.82-11.33L162.82-11.33Q163.52-9.22 165.70-8.16L165.70-8.16L165.70-8.16Q167.87-7.10 170.69-7.10L170.69-7.10L170.69-7.10Q173.31-7.10 175.65-7.78L175.65-7.78L175.65-7.78Q177.98-8.45 179.46-9.34L179.46-9.34L179.46-9.34Q180.48-8.70 181.18-7.55L181.18-7.55L181.18-7.55Q181.89-6.40 181.89-5.12L181.89-5.12L181.89-5.12Q181.89-2.24 179.20-0.83L179.20-0.83L179.20-0.83Q177.15 0.26 174.59 0.64L174.59 0.64L174.59 0.64Q172.03 1.02 169.79 1.02ZM168-24.13L168-24.13L168-24.13Q166.46-24.13 165.34-23.62L165.34-23.62L165.34-23.62Q164.22-23.10 163.52-22.30L163.52-22.30L163.52-22.30Q162.82-21.50 162.46-20.51L162.46-20.51L162.46-20.51Q162.11-19.52 162.05-18.50L162.05-18.50L172.99-20.29L172.99-20.29Q172.80-21.57 171.58-22.85L171.58-22.85L171.58-22.85Q170.37-24.13 168-24.13ZM200.45-20.80L203.84-20.80L203.84-20.80Q206.53-20.80 207.97-22.05L207.97-22.05L207.97-22.05Q209.41-23.30 209.41-25.86L209.41-25.86L209.41-25.86Q209.41-28.29 207.90-29.60L207.90-29.60L207.90-29.60Q206.40-30.91 203.52-30.91L203.52-30.91L203.52-30.91Q202.50-30.91 201.82-30.88L201.82-30.88L201.82-30.88Q201.15-30.85 200.45-30.72L200.45-30.72L200.45-20.80ZM200.51-12.03L200.51-0.26L200.51-0.26Q199.81-0.06 198.30 0.13L198.30 0.13L198.30 0.13Q196.80 0.32 195.33 0.32L195.33 0.32L195.33 0.32Q193.86 0.32 192.74 0.10L192.74 0.10L192.74 0.10Q191.62-0.13 190.85-0.70L190.85-0.70L190.85-0.70Q190.08-1.28 189.70-2.30L189.70-2.30L189.70-2.30Q189.31-3.33 189.31-4.99L189.31-4.99L189.31-35.14L189.31-35.14Q189.31-36.48 190.05-37.22L190.05-37.22L190.05-37.22Q190.78-37.95 192.06-38.40L192.06-38.40L192.06-38.40Q194.24-39.17 197.02-39.52L197.02-39.52L197.02-39.52Q199.81-39.87 202.62-39.87L202.62-39.87L202.62-39.87Q211.46-39.87 216.13-36.10L216.13-36.10L216.13-36.10Q220.80-32.32 220.80-25.86L220.80-25.86L220.80-25.86Q220.80-22.72 219.81-20.19L219.81-20.19L219.81-20.19Q218.82-17.66 216.86-15.84L216.86-15.84L216.86-15.84Q214.91-14.02 211.94-13.02L211.94-13.02L211.94-13.02Q208.96-12.03 205.06-12.03L205.06-12.03L200.51-12.03ZM242.11 1.02L242.11 1.02L242.11 1.02Q238.34 1.02 235.10-0.03L235.10-0.03L235.10-0.03Q231.87-1.09 229.47-3.20L229.47-3.20L229.47-3.20Q227.07-5.31 225.70-8.51L225.70-8.51L225.70-8.51Q224.32-11.71 224.32-16L224.32-16L224.32-16Q224.32-20.22 225.70-23.26L225.70-23.26L225.70-23.26Q227.07-26.30 229.31-28.26L229.31-28.26L229.31-28.26Q231.55-30.21 234.43-31.14L234.43-31.14L234.43-31.14Q237.31-32.06 240.32-32.06L240.32-32.06L240.32-32.06Q243.71-32.06 246.50-31.04L246.50-31.04L246.50-31.04Q249.28-30.02 251.30-28.22L251.30-28.22L251.30-28.22Q253.31-26.43 254.43-23.94L254.43-23.94L254.43-23.94Q255.55-21.44 255.55-18.50L255.55-18.50L255.55-18.50Q255.55-16.32 254.34-15.17L254.34-15.17L254.34-15.17Q253.12-14.02 250.94-13.70L250.94-13.70L235.14-11.33L235.14-11.33Q235.84-9.22 238.02-8.16L238.02-8.16L238.02-8.16Q240.19-7.10 243.01-7.10L243.01-7.10L243.01-7.10Q245.63-7.10 247.97-7.78L247.97-7.78L247.97-7.78Q250.30-8.45 251.78-9.34L251.78-9.34L251.78-9.34Q252.80-8.70 253.50-7.55L253.50-7.55L253.50-7.55Q254.21-6.40 254.21-5.12L254.21-5.12L254.21-5.12Q254.21-2.24 251.52-0.83L251.52-0.83L251.52-0.83Q249.47 0.26 246.91 0.64L246.91 0.64L246.91 0.64Q244.35 1.02 242.11 1.02ZM240.32-24.13L240.32-24.13L240.32-24.13Q238.78-24.13 237.66-23.62L237.66-23.62L237.66-23.62Q236.54-23.10 235.84-22.30L235.84-22.30L235.84-22.30Q235.14-21.50 234.78-20.51L234.78-20.51L234.78-20.51Q234.43-19.52 234.37-18.50L234.37-18.50L245.31-20.29L245.31-20.29Q245.12-21.57 243.90-22.85L243.90-22.85L243.90-22.85Q242.69-24.13 240.32-24.13ZM271.68-20.35L271.68-10.69L271.68-10.69Q271.68-9.02 272.74-8.32L272.74-8.32L272.74-8.32Q273.79-7.62 275.71-7.62L275.71-7.62L275.71-7.62Q276.67-7.62 277.70-7.78L277.70-7.78L277.70-7.78Q278.72-7.94 279.49-8.19L279.49-8.19L279.49-8.19Q280.06-7.49 280.48-6.62L280.48-6.62L280.48-6.62Q280.90-5.76 280.90-4.54L280.90-4.54L280.90-4.54Q280.90-2.11 279.07-0.58L279.07-0.58L279.07-0.58Q277.25 0.96 272.64 0.96L272.64 0.96L272.64 0.96Q267.01 0.96 263.97-1.60L263.97-1.60L263.97-1.60Q260.93-4.16 260.93-9.92L260.93-9.92L260.93-37.31L260.93-37.31Q261.63-37.50 262.94-37.73L262.94-37.73L262.94-37.73Q264.26-37.95 265.73-37.95L265.73-37.95L265.73-37.95Q268.54-37.95 270.11-36.96L270.11-36.96L270.11-36.96Q271.68-35.97 271.68-32.77L271.68-32.77L271.68-28.67L280.06-28.67L280.06-28.67Q280.45-27.97 280.80-26.91L280.80-26.91L280.80-26.91Q281.15-25.86 281.15-24.58L281.15-24.58L281.15-24.58Q281.15-22.34 280.16-21.34L280.16-21.34L280.16-21.34Q279.17-20.35 277.50-20.35L277.50-20.35L271.68-20.35ZM312.64-9.28L312.64-9.28L312.64-9.28Q312.64-4.42 308.99-1.66L308.99-1.66L308.99-1.66Q305.34 1.09 298.24 1.09L298.24 1.09L298.24 1.09Q295.55 1.09 293.25 0.70L293.25 0.70L293.25 0.70Q290.94 0.32 289.31-0.48L289.31-0.48L289.31-0.48Q287.68-1.28 286.75-2.50L286.75-2.50L286.75-2.50Q285.82-3.71 285.82-5.38L285.82-5.38L285.82-5.38Q285.82-6.91 286.46-7.97L286.46-7.97L286.46-7.97Q287.10-9.02 288-9.73L288-9.73L288-9.73Q289.86-8.70 292.26-7.90L292.26-7.90L292.26-7.90Q294.66-7.10 297.79-7.10L297.79-7.10L297.79-7.10Q299.78-7.10 300.83-7.68L300.83-7.68L300.83-7.68Q301.89-8.26 301.89-9.22L301.89-9.22L301.89-9.22Q301.89-10.11 301.12-10.62L301.12-10.62L301.12-10.62Q300.35-11.14 298.56-11.46L298.56-11.46L296.64-11.84L296.64-11.84Q291.07-12.93 288.35-15.26L288.35-15.26L288.35-15.26Q285.63-17.60 285.63-21.95L285.63-21.95L285.63-21.95Q285.63-24.32 286.66-26.24L286.66-26.24L286.66-26.24Q287.68-28.16 289.54-29.44L289.54-29.44L289.54-29.44Q291.39-30.72 293.98-31.42L293.98-31.42L293.98-31.42Q296.58-32.13 299.71-32.13L299.71-32.13L299.71-32.13Q302.08-32.13 304.16-31.78L304.16-31.78L304.16-31.78Q306.24-31.42 307.78-30.72L307.78-30.72L307.78-30.72Q309.31-30.02 310.21-28.90L310.21-28.90L310.21-28.90Q311.10-27.78 311.10-26.24L311.10-26.24L311.10-26.24Q311.10-24.77 310.56-23.71L310.56-23.71L310.56-23.71Q310.02-22.66 309.18-21.95L309.18-21.95L309.18-21.95Q308.67-22.27 307.65-22.62L307.65-22.62L307.65-22.62Q306.62-22.98 305.41-23.26L305.41-23.26L305.41-23.26Q304.19-23.55 302.94-23.74L302.94-23.74L302.94-23.74Q301.70-23.94 300.67-23.94L300.67-23.94L300.67-23.94Q298.56-23.94 297.41-23.46L297.41-23.46L297.41-23.46Q296.26-22.98 296.26-21.95L296.26-21.95L296.26-21.95Q296.26-21.25 296.90-20.80L296.90-20.80L296.90-20.80Q297.54-20.35 299.33-19.97L299.33-19.97L301.31-19.52L301.31-19.52Q307.46-18.11 310.05-15.65L310.05-15.65L310.05-15.65Q312.64-13.18 312.64-9.28Z" fill="url(#editing-sticker-gradient)" stroke="#000" stroke-width="2.5"></path></g></g><style>text {
  font-size: 64px;
  font-family: Arial Black;
  dominant-baseline: central;
  text-anchor: middle;
}</style></svg>